<mxfile host="65bd71144e">
    <diagram id="cfUA-OYC1I8i9XxLiP8Q" name="Page-1">
        <mxGraphModel dx="1914" dy="845" grid="0" gridSize="10" guides="1" tooltips="1" connect="1" arrows="1" fold="1" page="0" pageScale="1" pageWidth="827" pageHeight="1169" math="0" shadow="0">
            <root>
                <mxCell id="0"/>
                <mxCell id="1" parent="0"/>
                <mxCell id="181" value="" style="rounded=1;whiteSpace=wrap;html=1;fontSize=20;strokeWidth=2;dashed=1;fillColor=none;strokeColor=#FFFF99;" vertex="1" parent="1">
                    <mxGeometry x="72" y="347" width="497" height="118" as="geometry"/>
                </mxCell>
                <mxCell id="165" style="edgeStyle=orthogonalEdgeStyle;html=1;exitX=1;exitY=0.5;exitDx=0;exitDy=0;entryX=0;entryY=0.5;entryDx=0;entryDy=0;strokeColor=#FFFFFF;strokeWidth=1;" edge="1" parent="1" source="164" target="163">
                    <mxGeometry relative="1" as="geometry"/>
                </mxCell>
                <mxCell id="166" style="edgeStyle=orthogonalEdgeStyle;html=1;exitX=1;exitY=0.5;exitDx=0;exitDy=0;entryX=0;entryY=0.5;entryDx=0;entryDy=0;strokeColor=#FFFFFF;strokeWidth=1;" edge="1" parent="1" source="164" target="161">
                    <mxGeometry relative="1" as="geometry"/>
                </mxCell>
                <mxCell id="164" value="" style="rounded=1;whiteSpace=wrap;html=1;fontSize=14;fillColor=none;dashed=1;strokeWidth=2;" vertex="1" parent="1">
                    <mxGeometry x="243" y="156.5" width="160" height="90" as="geometry"/>
                </mxCell>
                <mxCell id="154" style="edgeStyle=orthogonalEdgeStyle;html=1;exitX=1;exitY=0.5;exitDx=0;exitDy=0;entryX=0;entryY=0.5;entryDx=0;entryDy=0;dashed=1;strokeWidth=3;" edge="1" parent="1" source="10" target="9">
                    <mxGeometry relative="1" as="geometry"/>
                </mxCell>
                <mxCell id="155" style="edgeStyle=orthogonalEdgeStyle;html=1;exitX=1;exitY=0.5;exitDx=0;exitDy=0;entryX=0;entryY=0.5;entryDx=0;entryDy=0;dashed=1;strokeWidth=3;" edge="1" parent="1" source="10" target="142">
                    <mxGeometry relative="1" as="geometry"/>
                </mxCell>
                <mxCell id="10" value="" style="rounded=1;whiteSpace=wrap;html=1;fontSize=14;fillColor=none;dashed=1;strokeWidth=2;" parent="1" vertex="1">
                    <mxGeometry x="254" y="-30" width="160" height="90" as="geometry"/>
                </mxCell>
                <mxCell id="69" style="edgeStyle=orthogonalEdgeStyle;html=1;exitX=0.5;exitY=1;exitDx=0;exitDy=0;fontColor=#FF3333;" parent="1" source="3" edge="1" target="143">
                    <mxGeometry relative="1" as="geometry">
                        <mxPoint x="330" y="281" as="targetPoint"/>
                    </mxGeometry>
                </mxCell>
                <mxCell id="3" value="&lt;font style=&quot;font-size: 14px;&quot;&gt;&lt;b&gt;Server&lt;/b&gt;&lt;/font&gt;" style="rounded=1;whiteSpace=wrap;html=1;" parent="1" vertex="1">
                    <mxGeometry x="270" y="-10" width="120" height="50" as="geometry"/>
                </mxCell>
                <mxCell id="9" value="Connect DB" style="rounded=1;whiteSpace=wrap;html=1;fontSize=14;fillColor=none;dashed=1;strokeWidth=2;" parent="1" vertex="1">
                    <mxGeometry x="483" y="-76" width="120" height="70" as="geometry"/>
                </mxCell>
                <mxCell id="55" value="&lt;font size=&quot;1&quot; style=&quot;&quot;&gt;&lt;b style=&quot;font-size: 20px;&quot;&gt;API - WITHOUT REDUX&lt;/b&gt;&lt;/font&gt;" style="rounded=1;whiteSpace=wrap;html=1;dashed=1;strokeWidth=4;strokeColor=#FF19F0;" parent="1" vertex="1">
                    <mxGeometry x="233" y="-191" width="449" height="60" as="geometry"/>
                </mxCell>
                <mxCell id="56" value="&lt;font style=&quot;font-size: 20px;&quot;&gt;Légende&lt;/font&gt;" style="swimlane;fontStyle=0;childLayout=stackLayout;horizontal=1;startSize=26;fillColor=none;horizontalStack=0;resizeParent=1;resizeParentMax=0;resizeLast=0;collapsible=1;marginBottom=0;html=1;" parent="1" vertex="1">
                    <mxGeometry x="-92" y="40" width="224" height="104" as="geometry"/>
                </mxCell>
                <mxCell id="57" value="&lt;font style=&quot;font-size: 13px;&quot; color=&quot;#ff3333&quot;&gt;&lt;b&gt;State (gèrant les params query)&lt;/b&gt;&lt;/font&gt;" style="text;strokeColor=none;fillColor=none;align=left;verticalAlign=top;spacingLeft=4;spacingRight=4;overflow=hidden;rotatable=0;points=[[0,0.5],[1,0.5]];portConstraint=eastwest;whiteSpace=wrap;html=1;" parent="56" vertex="1">
                    <mxGeometry y="26" width="224" height="26" as="geometry"/>
                </mxCell>
                <mxCell id="58" value="&lt;font style=&quot;font-size: 13px;&quot; color=&quot;#3333ff&quot;&gt;&lt;b&gt;Functions&lt;/b&gt;&lt;/font&gt;" style="text;strokeColor=none;fillColor=none;align=left;verticalAlign=top;spacingLeft=4;spacingRight=4;overflow=hidden;rotatable=0;points=[[0,0.5],[1,0.5]];portConstraint=eastwest;whiteSpace=wrap;html=1;" parent="56" vertex="1">
                    <mxGeometry y="52" width="224" height="26" as="geometry"/>
                </mxCell>
                <mxCell id="59" value="&lt;font style=&quot;font-size: 13px;&quot; color=&quot;#99ff99&quot;&gt;&lt;b&gt;Fetch (Axios)&lt;/b&gt;&lt;/font&gt;" style="text;strokeColor=none;fillColor=none;align=left;verticalAlign=top;spacingLeft=4;spacingRight=4;overflow=hidden;rotatable=0;points=[[0,0.5],[1,0.5]];portConstraint=eastwest;whiteSpace=wrap;html=1;" parent="56" vertex="1">
                    <mxGeometry y="78" width="224" height="26" as="geometry"/>
                </mxCell>
                <mxCell id="123" value="&lt;font style=&quot;font-size: 14px;&quot;&gt;&lt;b&gt;Models&lt;/b&gt;&lt;/font&gt;" style="rounded=1;whiteSpace=wrap;html=1;fontSize=20;strokeWidth=2;dashed=1;fillColor=none;strokeColor=#3333FF;" parent="1" vertex="1">
                    <mxGeometry x="-369" y="193" width="152" height="67" as="geometry"/>
                </mxCell>
                <mxCell id="124" value="&lt;font style=&quot;font-size: 14px;&quot;&gt;&lt;b&gt;Controllers&lt;/b&gt;&lt;/font&gt;" style="rounded=1;whiteSpace=wrap;html=1;fontSize=20;strokeWidth=2;dashed=1;fillColor=none;strokeColor=#66FF66;" parent="1" vertex="1">
                    <mxGeometry x="-369" y="94" width="156" height="65" as="geometry"/>
                </mxCell>
                <mxCell id="125" value="&lt;font style=&quot;font-size: 14px;&quot;&gt;&lt;b&gt;Routes&lt;/b&gt;&lt;/font&gt;" style="rounded=1;whiteSpace=wrap;html=1;fontSize=20;strokeWidth=2;dashed=1;fillColor=none;strokeColor=#FF3333;" parent="1" vertex="1">
                    <mxGeometry x="-366" y="-7" width="148" height="75" as="geometry"/>
                </mxCell>
                <mxCell id="138" value="&lt;font style=&quot;font-size: 14px;&quot;&gt;&lt;b&gt;Middlewares (isAuthentificated)&lt;/b&gt;&lt;/font&gt;" style="rounded=1;whiteSpace=wrap;html=1;fontSize=20;strokeWidth=2;dashed=1;fillColor=none;strokeColor=#FFFF99;" parent="1" vertex="1">
                    <mxGeometry x="-366" y="273" width="159" height="93" as="geometry"/>
                </mxCell>
                <mxCell id="142" value="Listen" style="rounded=1;whiteSpace=wrap;html=1;fontSize=14;fillColor=none;dashed=1;strokeWidth=2;" vertex="1" parent="1">
                    <mxGeometry x="483" y="17" width="120" height="70" as="geometry"/>
                </mxCell>
                <mxCell id="156" style="edgeStyle=orthogonalEdgeStyle;html=1;exitX=0.5;exitY=1;exitDx=0;exitDy=0;entryX=0.558;entryY=0.017;entryDx=0;entryDy=0;entryPerimeter=0;strokeWidth=1;strokeColor=#FFFFFF;" edge="1" parent="1" source="143" target="148">
                    <mxGeometry relative="1" as="geometry"/>
                </mxCell>
                <mxCell id="157" style="edgeStyle=orthogonalEdgeStyle;html=1;exitX=0.5;exitY=1;exitDx=0;exitDy=0;strokeColor=#FFFFFF;strokeWidth=1;" edge="1" parent="1" source="143" target="149">
                    <mxGeometry relative="1" as="geometry"/>
                </mxCell>
                <mxCell id="158" style="edgeStyle=orthogonalEdgeStyle;html=1;exitX=0.5;exitY=1;exitDx=0;exitDy=0;entryX=0.5;entryY=0;entryDx=0;entryDy=0;strokeColor=#FFFFFF;strokeWidth=1;" edge="1" parent="1" source="143" target="151">
                    <mxGeometry relative="1" as="geometry"/>
                </mxCell>
                <mxCell id="159" style="edgeStyle=orthogonalEdgeStyle;html=1;exitX=0.5;exitY=1;exitDx=0;exitDy=0;entryX=0.5;entryY=0;entryDx=0;entryDy=0;strokeColor=#FFFFFF;strokeWidth=1;" edge="1" parent="1" source="143" target="150">
                    <mxGeometry relative="1" as="geometry"/>
                </mxCell>
                <mxCell id="160" style="edgeStyle=orthogonalEdgeStyle;html=1;exitX=0.5;exitY=1;exitDx=0;exitDy=0;strokeColor=#FFFFFF;strokeWidth=1;" edge="1" parent="1" source="143" target="152">
                    <mxGeometry relative="1" as="geometry"/>
                </mxCell>
                <mxCell id="143" value="&lt;font style=&quot;font-size: 14px;&quot;&gt;&lt;b&gt;App&lt;/b&gt;&lt;/font&gt;" style="rounded=1;whiteSpace=wrap;html=1;" vertex="1" parent="1">
                    <mxGeometry x="270" y="179" width="120" height="50" as="geometry"/>
                </mxCell>
                <mxCell id="178" style="edgeStyle=orthogonalEdgeStyle;html=1;exitX=0.5;exitY=1;exitDx=0;exitDy=0;entryX=0.5;entryY=0;entryDx=0;entryDy=0;strokeColor=#FFFFFF;strokeWidth=1;" edge="1" parent="1" source="148" target="172">
                    <mxGeometry relative="1" as="geometry"/>
                </mxCell>
                <mxCell id="148" value="&lt;font style=&quot;font-size: 14px;&quot;&gt;&lt;b&gt;Stripe&lt;/b&gt;&lt;/font&gt;" style="rounded=1;whiteSpace=wrap;html=1;fontSize=20;strokeWidth=2;dashed=1;fillColor=none;strokeColor=#FF3333;" vertex="1" parent="1">
                    <mxGeometry x="588" y="386" width="120" height="60" as="geometry"/>
                </mxCell>
                <mxCell id="182" style="edgeStyle=orthogonalEdgeStyle;html=1;exitX=0.5;exitY=1;exitDx=0;exitDy=0;strokeColor=#FFFFFF;strokeWidth=1;" edge="1" parent="1" source="149" target="173">
                    <mxGeometry relative="1" as="geometry"/>
                </mxCell>
                <mxCell id="149" value="&lt;font style=&quot;font-size: 14px;&quot;&gt;&lt;b&gt;Restaurants&lt;/b&gt;&lt;/font&gt;" style="rounded=1;whiteSpace=wrap;html=1;fontSize=20;strokeWidth=2;dashed=1;fillColor=none;strokeColor=#FF3333;" vertex="1" parent="1">
                    <mxGeometry x="432" y="386" width="120" height="60" as="geometry"/>
                </mxCell>
                <mxCell id="180" style="edgeStyle=orthogonalEdgeStyle;html=1;exitX=0.5;exitY=1;exitDx=0;exitDy=0;entryX=0.45;entryY=-0.017;entryDx=0;entryDy=0;entryPerimeter=0;strokeColor=#FFFFFF;strokeWidth=1;" edge="1" parent="1" source="150" target="169">
                    <mxGeometry relative="1" as="geometry"/>
                </mxCell>
                <mxCell id="150" value="&lt;font style=&quot;font-size: 14px;&quot;&gt;&lt;b&gt;Users&lt;/b&gt;&lt;/font&gt;" style="rounded=1;whiteSpace=wrap;html=1;fontSize=20;strokeWidth=2;dashed=1;fillColor=none;strokeColor=#FF3333;" vertex="1" parent="1">
                    <mxGeometry x="103" y="383" width="120" height="60" as="geometry"/>
                </mxCell>
                <mxCell id="183" style="edgeStyle=orthogonalEdgeStyle;html=1;exitX=0.5;exitY=1;exitDx=0;exitDy=0;strokeColor=#FFFFFF;strokeWidth=1;" edge="1" parent="1" source="151" target="171">
                    <mxGeometry relative="1" as="geometry"/>
                </mxCell>
                <mxCell id="151" value="&lt;font style=&quot;font-size: 14px;&quot;&gt;&lt;b&gt;Products&lt;/b&gt;&lt;/font&gt;" style="rounded=1;whiteSpace=wrap;html=1;fontSize=20;strokeWidth=2;dashed=1;fillColor=none;strokeColor=#FF3333;" vertex="1" parent="1">
                    <mxGeometry x="270" y="381" width="120" height="60" as="geometry"/>
                </mxCell>
                <mxCell id="179" style="edgeStyle=orthogonalEdgeStyle;html=1;exitX=0.5;exitY=1;exitDx=0;exitDy=0;strokeColor=#FFFFFF;strokeWidth=1;" edge="1" parent="1" source="152" target="170">
                    <mxGeometry relative="1" as="geometry"/>
                </mxCell>
                <mxCell id="152" value="&lt;font style=&quot;font-size: 14px;&quot;&gt;&lt;b&gt;Auth&lt;/b&gt;&lt;/font&gt;" style="rounded=1;whiteSpace=wrap;html=1;fontSize=20;strokeWidth=2;dashed=1;fillColor=none;strokeColor=#FF3333;" vertex="1" parent="1">
                    <mxGeometry x="-70" y="381" width="120" height="60" as="geometry"/>
                </mxCell>
                <mxCell id="161" value="Config Cloudinary" style="rounded=1;whiteSpace=wrap;html=1;fontSize=14;fillColor=none;dashed=1;strokeWidth=2;" vertex="1" parent="1">
                    <mxGeometry x="481" y="220" width="136" height="70" as="geometry"/>
                </mxCell>
                <mxCell id="163" value="Middlewares (express, cors...)" style="rounded=1;whiteSpace=wrap;html=1;fontSize=14;fillColor=none;dashed=1;strokeWidth=2;" vertex="1" parent="1">
                    <mxGeometry x="478" y="120" width="136" height="70" as="geometry"/>
                </mxCell>
                <mxCell id="188" style="edgeStyle=orthogonalEdgeStyle;html=1;exitX=0.5;exitY=1;exitDx=0;exitDy=0;entryX=0.5;entryY=0;entryDx=0;entryDy=0;strokeColor=#FFFFFF;strokeWidth=1;" edge="1" parent="1" source="169" target="174">
                    <mxGeometry relative="1" as="geometry"/>
                </mxCell>
                <mxCell id="169" value="&lt;font style=&quot;font-size: 14px;&quot;&gt;&lt;b&gt;UserCtrl&lt;/b&gt;&lt;/font&gt;" style="rounded=1;whiteSpace=wrap;html=1;fontSize=20;strokeWidth=2;dashed=1;fillColor=none;strokeColor=#66FF66;" vertex="1" parent="1">
                    <mxGeometry x="109" y="529" width="120" height="60" as="geometry"/>
                </mxCell>
                <mxCell id="186" style="edgeStyle=orthogonalEdgeStyle;html=1;exitX=0.5;exitY=1;exitDx=0;exitDy=0;entryX=0.5;entryY=0;entryDx=0;entryDy=0;strokeColor=#FFFFFF;strokeWidth=1;" edge="1" parent="1" source="170" target="174">
                    <mxGeometry relative="1" as="geometry"/>
                </mxCell>
                <mxCell id="170" value="&lt;font style=&quot;font-size: 14px;&quot;&gt;&lt;b&gt;AuthCtrl&lt;/b&gt;&lt;/font&gt;" style="rounded=1;whiteSpace=wrap;html=1;fontSize=20;strokeWidth=2;dashed=1;fillColor=none;strokeColor=#66FF66;" vertex="1" parent="1">
                    <mxGeometry x="-70" y="523" width="120" height="60" as="geometry"/>
                </mxCell>
                <mxCell id="185" style="edgeStyle=orthogonalEdgeStyle;html=1;exitX=0.5;exitY=1;exitDx=0;exitDy=0;strokeColor=#FFFFFF;strokeWidth=1;" edge="1" parent="1" source="171">
                    <mxGeometry relative="1" as="geometry">
                        <mxPoint x="330" y="659" as="targetPoint"/>
                    </mxGeometry>
                </mxCell>
                <mxCell id="171" value="&lt;font style=&quot;font-size: 14px;&quot;&gt;&lt;b&gt;ProductCtrl&lt;/b&gt;&lt;/font&gt;" style="rounded=1;whiteSpace=wrap;html=1;fontSize=20;strokeWidth=2;dashed=1;fillColor=none;strokeColor=#66FF66;" vertex="1" parent="1">
                    <mxGeometry x="270" y="523" width="120" height="60" as="geometry"/>
                </mxCell>
                <mxCell id="172" value="&lt;font style=&quot;font-size: 14px;&quot;&gt;&lt;b&gt;StripeCtrl&lt;/b&gt;&lt;/font&gt;" style="rounded=1;whiteSpace=wrap;html=1;fontSize=20;strokeWidth=2;dashed=1;fillColor=none;strokeColor=#66FF66;" vertex="1" parent="1">
                    <mxGeometry x="588" y="529" width="120" height="60" as="geometry"/>
                </mxCell>
                <mxCell id="184" style="edgeStyle=orthogonalEdgeStyle;html=1;exitX=0.5;exitY=1;exitDx=0;exitDy=0;entryX=0.5;entryY=0;entryDx=0;entryDy=0;strokeColor=#FFFFFF;strokeWidth=1;" edge="1" parent="1" source="173" target="176">
                    <mxGeometry relative="1" as="geometry"/>
                </mxCell>
                <mxCell id="173" value="&lt;font style=&quot;font-size: 14px;&quot;&gt;&lt;b&gt;RestaurantCtrl&lt;/b&gt;&lt;/font&gt;" style="rounded=1;whiteSpace=wrap;html=1;fontSize=20;strokeWidth=2;dashed=1;fillColor=none;strokeColor=#66FF66;" vertex="1" parent="1">
                    <mxGeometry x="432" y="523" width="120" height="60" as="geometry"/>
                </mxCell>
                <mxCell id="174" value="&lt;font style=&quot;font-size: 14px;&quot;&gt;&lt;b&gt;User&lt;/b&gt;&lt;/font&gt;" style="rounded=1;whiteSpace=wrap;html=1;fontSize=20;strokeWidth=2;dashed=1;fillColor=none;strokeColor=#3333FF;" vertex="1" parent="1">
                    <mxGeometry x="12" y="669" width="120" height="60" as="geometry"/>
                </mxCell>
                <mxCell id="175" value="&lt;font style=&quot;font-size: 14px;&quot;&gt;&lt;b&gt;Product&lt;/b&gt;&lt;/font&gt;" style="rounded=1;whiteSpace=wrap;html=1;fontSize=20;strokeWidth=2;dashed=1;fillColor=none;strokeColor=#3333FF;" vertex="1" parent="1">
                    <mxGeometry x="263" y="665" width="120" height="60" as="geometry"/>
                </mxCell>
                <mxCell id="176" value="&lt;font style=&quot;font-size: 14px;&quot;&gt;&lt;b&gt;Restaurant&lt;/b&gt;&lt;/font&gt;" style="rounded=1;whiteSpace=wrap;html=1;fontSize=20;strokeWidth=2;dashed=1;fillColor=none;strokeColor=#3333FF;" vertex="1" parent="1">
                    <mxGeometry x="432" y="665" width="120" height="60" as="geometry"/>
                </mxCell>
            </root>
        </mxGraphModel>
    </diagram>
</mxfile>